<?xml version="1.0" standalone="no"?>
<!DOCTYPE svg PUBLIC "-//W3C//DTD SVG 20010904//EN"
 "http://www.w3.org/TR/2001/REC-SVG-20010904/DTD/svg10.dtd">
<svg version="1.0" xmlns="http://www.w3.org/2000/svg"
 width="207.000000pt" height="207.000000pt" viewBox="0 0 207.000000 207.000000"
 preserveAspectRatio="xMidYMid meet">
<metadata>
Created by potrace 1.14, written by Peter Selinger 2001-2017
</metadata>
<g transform="translate(0.000000,207.000000) scale(0.100000,-0.100000)"
fill="#000000" stroke="none">
<path d="M1285 1930 l-69 -140 -528 0 -528 0 0 -895 0 -895 803 0 802 0 -1
897 -1 897 64 133 c34 73 63 136 63 138 0 3 -121 5 -268 5 l-268 0 -69 -140z
m395 4 c0 -1 -34 -73 -76 -160 -42 -87 -91 -190 -109 -229 -18 -38 -58 -124
-90 -190 -61 -127 -123 -257 -185 -390 -73 -155 -118 -251 -180 -380 -34 -71
-79 -166 -99 -209 l-38 -79 -43 79 c-24 43 -54 98 -67 122 -12 23 -23 47 -23
52 0 5 43 98 96 207 140 288 248 510 364 748 56 116 126 260 156 320 l53 110
120 0 c67 0 121 0 121 -1z m-537 -290 c-1 -5 -59 -126 -128 -269 -70 -143
-144 -296 -165 -340 -21 -44 -83 -172 -138 -284 l-99 -204 47 -86 c25 -47 68
-126 95 -176 26 -50 56 -105 67 -123 l18 -32 -273 2 -272 3 0 533 c0 292 2
532 6 532 3 0 20 -30 37 -67 17 -38 71 -154 120 -260 67 -145 92 -189 100
-181 7 7 12 16 12 20 0 4 58 125 130 269 72 143 130 267 130 275 0 8 -25 71
-56 139 l-56 125 -209 0 c-160 0 -209 3 -210 13 -3 26 -5 112 -3 117 4 10 849
4 847 -6z m485 -829 l0 -685 -324 0 c-178 0 -324 2 -324 5 0 3 18 43 39 89 22
46 58 121 79 167 22 46 66 138 97 204 55 114 93 195 190 400 40 84 118 249
203 428 20 42 37 77 38 77 1 0 2 -308 2 -685z m-976 520 c14 -27 27 -58 27
-69 1 -10 -27 -74 -61 -143 -67 -134 -70 -137 -101 -58 -15 40 -120 266 -137
296 -5 9 -7 18 -5 21 2 2 59 3 127 3 l123 0 27 -50z"/>
</g>
</svg>
